<svg width="83" height="27" viewBox="0 0 83 27" fill="none" xmlns="http://www.w3.org/2000/svg">
<path d="M34.7506 0.911999C33.9186 0.623999 32.9906 1.04 32.7026 1.872L26.7826 19.664L20.6066 1.904C20.3826 1.264 19.7746 0.848 19.1026 0.848C18.4306 0.848 17.8226 1.264 17.5986 1.904L11.5506 19.664L6.14263 3.568C5.59863 1.936 4.35063 0.848 2.23863 0.848C1.37463 0.848 0.670625 1.552 0.670625 2.448C0.670625 3.344 1.37463 4.048 2.27063 4.048C2.55863 4.048 2.91063 4.048 3.10263 4.624L10.0466 25.2C10.2706 25.84 10.8786 26.256 11.5506 26.256C12.2226 26.256 12.8306 25.84 13.0546 25.2L19.1026 7.408L25.2786 25.2C25.5026 25.84 26.1106 26.256 26.7826 26.256C27.4546 26.256 28.0626 25.84 28.2866 25.2L35.7106 2.96C35.9986 2.128 35.5826 1.232 34.7506 0.911999ZM59.4286 21.968C60.3246 20.912 61.0286 19.728 61.5726 18.448C62.2446 16.848 62.5966 15.152 62.5966 13.424C62.5966 11.696 62.2446 10 61.6046 8.4C60.9646 6.832 60.0366 5.456 58.8526 4.24C56.4526 1.776 53.1566 0.4 49.6686 0.4C47.8766 0.4 46.1486 0.751999 44.5166 1.424C42.9486 2.064 41.5406 3.024 40.3246 4.208C39.1086 5.424 38.1486 6.8 37.4766 8.368C36.7726 9.968 36.4206 11.664 36.4206 13.392C36.4206 15.152 36.7726 16.848 37.4766 18.448C38.1166 20.016 39.0766 21.392 40.2926 22.608C41.4766 23.792 42.8846 24.752 44.4526 25.424C46.0846 26.096 47.8126 26.448 49.5726 26.448C51.7166 26.448 53.7646 25.936 55.6206 24.976C55.8766 24.912 56.1646 24.816 56.5166 24.784C57.8286 24.592 58.8846 25.008 59.7166 26.096C60.0366 26.48 60.5166 26.704 60.9966 26.704C61.3166 26.704 61.6686 26.576 61.9886 26.352C62.6606 25.808 62.7886 24.816 62.2446 24.112C61.4446 23.088 60.4846 22.384 59.4286 21.968ZM58.6286 17.232C58.1486 18.384 57.4446 19.44 56.5486 20.336C54.6926 22.224 52.2286 23.248 49.5726 23.248C46.9166 23.248 44.4206 22.224 42.5326 20.336C41.6366 19.408 40.9006 18.352 40.4206 17.2C39.8766 15.984 39.6206 14.704 39.6206 13.392C39.6206 12.112 39.9086 10.832 40.4206 9.616C40.9326 8.464 41.6366 7.408 42.5646 6.512C43.4926 5.584 44.5806 4.88 45.7646 4.368C47.0126 3.856 48.3246 3.6 49.6686 3.6C52.2926 3.6 54.7566 4.624 56.5806 6.48C58.3726 8.336 59.3966 10.8 59.3966 13.424C59.3966 14.736 59.1406 16.016 58.6286 17.232ZM81.8746 21.872C81.2346 21.264 80.2106 21.264 79.6026 21.904C79.6026 21.904 78.7386 22.704 77.7466 22.704C77.2026 22.704 76.6586 22.448 76.0826 21.904C74.9626 20.752 72.8826 19.632 69.3946 20.528C69.0426 20.624 68.6906 20.72 68.3706 20.816V2.448C68.3706 1.552 67.6666 0.848 66.7706 0.848C65.9066 0.848 65.1706 1.552 65.1706 2.448V23.056C65.1706 23.088 65.1706 23.152 65.2026 23.184C65.1706 23.504 65.2346 23.824 65.4266 24.144C65.7146 24.624 66.2586 24.912 66.7706 24.912C67.0586 24.912 67.3466 24.848 67.6026 24.688C67.6346 24.656 68.7546 23.984 70.1946 23.632C71.8266 23.184 73.0426 23.376 73.8426 24.144C74.9946 25.296 76.3386 25.904 77.7466 25.904C77.7466 25.904 77.7466 25.904 77.7786 25.904C80.0826 25.904 81.6826 24.336 81.8746 24.144C82.4826 23.504 82.4826 22.512 81.8746 21.872Z" fill="black"/>
</svg>
